# xmcd
#
# Track frame offsets: 
#        150
#        20014
#        35227
#        85721
#        104030
#        134867
#        156685
#        183160
#        224792
#        237882
#
# Disc length: 3804 seconds
#
# Revision: 1
# Processed by: cddbd v1.5.2PL0 Copyright (c) Steve Scherf et al.
# Submitted via: ExactAudioCopyFreeDBPlugin 1.0
#
DISCID=9d0eda0a
DTITLE=North Mississippi Allstars - Boulderado:  Live at the Fox, 2008
DYEAR=2008
DGENRE=Blues
TTITLE0=The Meeting
TTITLE1=Bang, Bang Lulu
TTITLE2=Soldier - Take Yo Time Rodney
TTITLE3=Keep the Devil Down
TTITLE4=In My Time of Dyin'
TTITLE5=Everybody Needs Somebody to Love
TTITLE6=Stray Cat Blues
TTITLE7=All Night Long
TTITLE8=Snakedrive
TTITLE9=JR - Stay All Night - Lord Have Mercy - Stay All Night
EXTD=
EXTT0=
EXTT1=
EXTT2=
EXTT3=
EXTT4=
EXTT5=
EXTT6=
EXTT7=
EXTT8=
EXTT9=
PLAYORDER=
